<svg xmlns="http://www.w3.org/2000/svg" viewBox="0 0 1200 630">
  <defs>
    <linearGradient id="bg" x1="0%" y1="0%" x2="100%" y2="100%">
      <stop offset="0%" stop-color="#0B1E3D"/>
      <stop offset="100%" stop-color="#122548"/>
    </linearGradient>
    <linearGradient id="accent" x1="0%" y1="0%" x2="100%" y2="100%">
      <stop offset="0%" stop-color="#1D61E7"/>
      <stop offset="100%" stop-color="#6B3FF6"/>
    </linearGradient>
  </defs>
  <rect width="1200" height="630" fill="url(#bg)"/>
  <!-- Grid lines -->
  <g stroke="#1D61E7" stroke-opacity="0.07">
    <line x1="0" y1="60" x2="1200" y2="60"/>
    <line x1="0" y1="120" x2="1200" y2="120"/>
    <line x1="0" y1="180" x2="1200" y2="180"/>
    <line x1="0" y1="240" x2="1200" y2="240"/>
    <line x1="0" y1="300" x2="1200" y2="300"/>
    <line x1="0" y1="360" x2="1200" y2="360"/>
    <line x1="0" y1="420" x2="1200" y2="420"/>
    <line x1="0" y1="480" x2="1200" y2="480"/>
    <line x1="0" y1="540" x2="1200" y2="540"/>
    <line x1="60" y1="0" x2="60" y2="630"/>
    <line x1="120" y1="0" x2="120" y2="630"/>
    <line x1="180" y1="0" x2="180" y2="630"/>
    <line x1="240" y1="0" x2="240" y2="630"/>
    <line x1="300" y1="0" x2="300" y2="630"/>
    <line x1="360" y1="0" x2="360" y2="630"/>
    <line x1="420" y1="0" x2="420" y2="630"/>
    <line x1="480" y1="0" x2="480" y2="630"/>
    <line x1="540" y1="0" x2="540" y2="630"/>
    <line x1="600" y1="0" x2="600" y2="630"/>
    <line x1="660" y1="0" x2="660" y2="630"/>
    <line x1="720" y1="0" x2="720" y2="630"/>
    <line x1="780" y1="0" x2="780" y2="630"/>
    <line x1="840" y1="0" x2="840" y2="630"/>
    <line x1="900" y1="0" x2="900" y2="630"/>
    <line x1="960" y1="0" x2="960" y2="630"/>
    <line x1="1020" y1="0" x2="1020" y2="630"/>
    <line x1="1080" y1="0" x2="1080" y2="630"/>
    <line x1="1140" y1="0" x2="1140" y2="630"/>
  </g>
  <!-- Logo mark -->
  <rect x="80" y="80" width="72" height="72" rx="16" fill="url(#accent)"/>
  <text x="116" y="130" font-family="system-ui" font-size="44" font-weight="800" text-anchor="middle" fill="white">E</text>
  <!-- Company name -->
  <text x="168" y="130" font-family="system-ui" font-size="40" font-weight="800" fill="white">Evolvity</text>
  <!-- Headline -->
  <text x="80" y="300" font-family="system-ui" font-size="64" font-weight="800" fill="white">AI Strategy &amp;</text>
  <text x="80" y="380" font-family="system-ui" font-size="64" font-weight="800" fill="url(#accent)">Technology Consulting</text>
  <!-- Tagline -->
  <text x="80" y="460" font-family="system-ui" font-size="28" fill="#94A3B8">Helping enterprises evolve through intelligent technology</text>
  <!-- URL -->
  <text x="80" y="550" font-family="system-ui" font-size="22" fill="#475569">www.evolvity.com</text>
</svg>
